<?xml version="1.0" encoding="UTF-8"?>
<svg version="1.1" xmlns="http://www.w3.org/2000/svg" width="650" height="520">
<path d="M0 0 C214.5 0 429 0 650 0 C650 171.6 650 343.2 650 520 C435.5 520 221 520 0 520 C0 348.4 0 176.8 0 0 Z " fill="#FEFEFF" transform="translate(0,0)"/>
<path d="M0 0 C7.63604143 4.89238887 12.12084951 11.45562486 16.375 19.3125 C17.40651837 21.16854363 18.43908812 23.02400329 19.47265625 24.87890625 C19.9845752 25.80461426 20.49649414 26.73032227 21.02392578 27.68408203 C23.38661396 31.9123266 25.84443771 36.08265286 28.3125 40.25 C28.74280518 40.97880371 29.17311035 41.70760742 29.61645508 42.45849609 C30.59717708 44.11892843 31.57961903 45.77834474 32.5625 47.4375 C33.01270508 47.03772949 33.46291016 46.63795898 33.92675781 46.22607422 C41.2011131 39.86149624 47.89078421 35.50715852 57.890625 36.015625 C64.87483449 37.11839492 70.59224176 40.4356951 75.5625 45.4375 C77.19033742 47.8240512 78.61260235 50.10975497 80 52.625 C80.41483643 53.35275635 80.82967285 54.0805127 81.25708008 54.83032227 C82.18690007 56.46182984 83.11201812 58.09602327 84.03320312 59.73242188 C86.28013617 63.70688199 88.57177826 67.65515048 90.85913086 71.60644531 C92.77143075 74.91204518 94.67736035 78.22124929 96.58203125 81.53125 C98.96648857 85.67276951 101.35690915 89.81065857 103.7568512 93.94322205 C105.14990456 96.34208738 106.5410084 98.74208072 107.93203735 101.14212036 C108.92052549 102.84574502 109.91177715 104.54776525 110.90307617 106.24975586 C111.49967041 107.27979736 112.09626465 108.30983887 112.7109375 109.37109375 C113.23864746 110.27915771 113.76635742 111.18722168 114.31005859 112.12280273 C116.71117904 116.56042904 116.81104249 120.63350752 116.875 125.5625 C116.90400391 126.284375 116.93300781 127.00625 116.96289062 127.75 C117.08116371 137.97607316 111.07990249 146.36298868 106.1875 155 C105.57753174 156.08265137 104.96756348 157.16530273 104.33911133 158.28076172 C98.36637529 168.84879307 92.27177662 179.34414601 86.10644531 189.80078125 C84.69509263 192.21106098 83.30771825 194.63306701 81.9296875 197.0625 C77.08068507 205.53925982 72.53992556 212.86052843 62.78125 215.95703125 C54.15109311 217.82588565 48.05061839 216.28642428 40.2890625 212.23828125 C37.30871066 210.26988268 34.99946729 208.03840872 32.5625 205.4375 C31.5630808 207.1306592 30.56389821 208.82395836 29.56567383 210.51782227 C28.67710943 212.02536435 27.78759999 213.53234977 26.8972168 215.03881836 C24.45758438 219.17665537 22.04984864 223.32870857 19.6953125 227.515625 C19.22391846 228.34795654 18.75252441 229.18028809 18.2668457 230.0378418 C17.36455016 231.63399169 16.46939034 233.23420483 15.58276367 234.83911133 C10.83832563 243.1976709 5.00313467 251.29062178 -4.4375 254.4375 C-12.5896112 255.06936631 -19.66384138 255.35206943 -26.4375 250.4375 C-31.59927379 245.97699824 -35.02138872 241.28068192 -38.125 235.25 C-38.96678282 233.67403066 -39.81198407 232.09988362 -40.66015625 230.52734375 C-41.10246582 229.7060498 -41.54477539 228.88475586 -42.00048828 228.03857422 C-44.56759436 223.39196393 -47.3163798 218.85486561 -50.0625 214.3125 C-50.59576904 213.42925049 -51.12903809 212.54600098 -51.6784668 211.63598633 C-52.92901654 209.56831485 -54.1818479 207.50207557 -55.4375 205.4375 C-55.88843018 205.83727051 -56.33936035 206.23704102 -56.80395508 206.64892578 C-64.36459765 213.25784401 -71.10667916 217.41113801 -81.4765625 216.91796875 C-89.99123329 215.53630054 -95.48742192 211.25326324 -100.4375 204.4375 C-103.08081291 200.20503061 -105.51214839 195.85954293 -107.9375 191.5 C-108.99247541 189.62473552 -110.05032322 187.75111019 -111.10829163 185.87753296 C-111.82639802 184.60542151 -112.54362964 183.33281587 -113.25999451 182.0597229 C-116.77629221 175.81505858 -120.37867091 169.62179107 -124 163.4375 C-124.5465625 162.50301025 -125.093125 161.56852051 -125.65625 160.60571289 C-126.18347656 159.70457764 -126.71070313 158.80344238 -127.25390625 157.875 C-127.76840332 156.99328125 -128.28290039 156.1115625 -128.81298828 155.203125 C-129.97297999 153.22831494 -131.14453012 151.26027564 -132.32373047 149.296875 C-132.94779785 148.25015625 -133.57186523 147.2034375 -134.21484375 146.125 C-134.78323975 145.18011719 -135.35163574 144.23523438 -135.93725586 143.26171875 C-140.21754619 135.20404608 -140.75832074 126.35858543 -139.4375 117.4375 C-137.7411604 112.37575355 -135.20884651 107.97153167 -132.4375 103.4375 C-131.71299136 102.19454169 -130.99172133 100.94969087 -130.2734375 99.703125 C-128.66219801 96.92242085 -127.02774815 94.15700043 -125.37890625 91.3984375 C-122.48253613 86.53786235 -119.65935194 81.6364613 -116.84033203 76.73071289 C-114.89612606 73.34924359 -112.9428799 69.97312642 -110.98828125 66.59765625 C-108.89261349 62.97565761 -106.8208162 59.34394225 -104.79296875 55.68359375 C-99.79823962 46.79053944 -94.4789097 39.79476406 -84.4375 36.4375 C-75.26606028 35.05313174 -68.07576905 37.32684393 -60.4375 42.4375 C-58.7291866 44.06145224 -57.05063563 45.71896894 -55.4375 47.4375 C-51.09150184 40.49934558 -46.88439058 33.552821 -43.0078125 26.33984375 C-41.14353889 22.89418382 -39.2394289 19.47343178 -37.3125 16.0625 C-36.34957031 14.34933594 -36.34957031 14.34933594 -35.3671875 12.6015625 C-32.58942393 8.04692993 -30.00019469 4.43231689 -25.375 1.6875 C-24.70339844 1.28015625 -24.03179687 0.8728125 -23.33984375 0.453125 C-16.79219863 -3.04253769 -6.73167987 -3.10081317 0 0 Z " fill="#1598FF" transform="translate(336.4375,133.5625)"/>
</svg>
