<?xml version="1.0" encoding="UTF-8"?>
<svg version="1.1" xmlns="http://www.w3.org/2000/svg" width="225" height="225">
<path d="M0 0 C74.25 0 148.5 0 225 0 C225 74.25 225 148.5 225 225 C150.75 225 76.5 225 0 225 C0 150.75 0 76.5 0 0 Z " fill="#000000" transform="translate(0,0)"/>
<path d="M0 0 C13.00557721 11.46680141 23.89116189 27.53082331 25.06347656 45.29321289 C25.14315372 48.42760145 25.15297224 51.55223911 25.125 54.6875 C25.11678223 55.79561035 25.10856445 56.9037207 25.10009766 58.04541016 C24.91025883 71.93222249 23.1672358 81.67180456 15.5234375 93.53515625 C14.23305106 95.53250683 14.23305106 95.53250683 12.875 98.4375 C14.59917623 103.06603726 17.72048249 106.80770441 21.875 109.4375 C25.18886831 110.01089197 28.37500954 110.12692666 31.734375 110.23046875 C44.8766951 111.09681572 55.37683436 125.77783174 64.02734375 134.421875 C65.05954717 135.45085446 66.09182094 136.47976336 67.12416077 137.50860596 C69.26625487 139.64477146 71.40633332 141.78293257 73.54516602 143.92236328 C76.27916055 146.65646025 79.02002428 149.38356054 81.76261044 152.10903549 C83.88760318 154.22290188 86.00802751 156.3413056 88.12719917 158.46100616 C89.13625178 159.46888392 90.14691433 160.47515268 91.15925407 161.4797287 C92.57048215 162.88112396 93.97472115 164.28954664 95.37866211 165.69824219 C96.17678818 166.49494324 96.97491425 167.29164429 97.79722595 168.11248779 C104.0068395 175.06099469 104.41839202 181.67080958 104.21484375 190.72265625 C103.60024055 197.44090502 100.95833377 200.58564776 96.0625 204.9375 C92.20710073 206.85243341 88.09998294 206.82096345 83.875 206.875 C83.19848389 206.8853125 82.52196777 206.895625 81.82495117 206.90625 C64.24808068 206.59919318 50.83588943 186.68127926 39.22412109 175.13671875 C37.15775077 173.08372458 35.08433088 171.03827087 33.00439453 168.99902344 C30.45925359 166.50360842 27.92699495 163.99575746 25.40306854 161.47889328 C23.9966363 160.08227032 22.57811171 158.69785756 21.15924072 157.31387329 C13.54986167 149.67951506 7.40654699 141.81046969 7 130.75 C6.3687303 124.02560542 4.69658885 120.96947215 -0.4453125 116.66015625 C-0.99960938 116.25667969 -1.55390625 115.85320312 -2.125 115.4375 C-6.0845173 116.47947824 -9.16425627 118.04312719 -12.5625 120.25 C-23.94915566 127.06524831 -33.66079077 128.88195085 -46.8125 128.9375 C-47.94034912 128.94378418 -49.06819824 128.95006836 -50.23022461 128.95654297 C-61.08935382 128.79322395 -70.98714504 126.6978158 -80.5625 121.5 C-81.63745728 120.92064697 -81.63745728 120.92064697 -82.73413086 120.32958984 C-98.39571146 111.48609976 -108.82124178 97.6732428 -116.125 81.4375 C-116.48851563 80.68210937 -116.85203125 79.92671875 -117.2265625 79.1484375 C-122.24884291 63.99425227 -122.01517466 40.75589124 -114.8828125 26.44140625 C-114.30273438 25.45011719 -113.72265625 24.45882812 -113.125 23.4375 C-112.34769531 21.99697266 -112.34769531 21.99697266 -111.5546875 20.52734375 C-101.46225625 3.19469008 -85.41949068 -9.39146981 -66.35546875 -15.44140625 C-43.08608594 -20.55280677 -18.17536067 -15.34604098 0 0 Z " fill="#FBFBFB" transform="translate(120.125,17.5625)"/>
<path d="M0 0 C8.41412043 5.93416914 14.59956309 12.54078974 19.0625 21.8125 C19.44277344 22.52792969 19.82304688 23.24335937 20.21484375 23.98046875 C25.56343761 34.12566635 25.96467873 47.82878509 23.19140625 58.921875 C20.72783313 66.32067164 17.32352924 72.09640283 12.0625 77.8125 C11.51335937 78.48667969 10.96421875 79.16085938 10.3984375 79.85546875 C2.66925794 88.65719966 -10.85859614 95.12663936 -22.48046875 96.11328125 C-38.11082981 96.16353965 -51.38508716 92.620171 -63.08984375 81.8046875 C-74.83118874 69.14488635 -78.68343559 56.20348223 -78.2265625 39.2890625 C-77.97044223 34.10854577 -77.03057688 29.56949291 -74.9375 24.8125 C-74.67066406 24.14605469 -74.40382813 23.47960937 -74.12890625 22.79296875 C-71.47862923 16.8210112 -67.41408742 11.54101659 -62.9375 6.8125 C-62.2775 6.8125 -61.6175 6.8125 -60.9375 6.8125 C-60.9375 6.1525 -60.9375 5.4925 -60.9375 4.8125 C-45.26287015 -10.47700381 -18.07687348 -10.88663249 0 0 Z " fill="#010101" transform="translate(99.9375,29.1875)"/>
<path d="M0 0 C0.33 0 0.66 0 1 0 C1 8.25 1 16.5 1 25 C-7.91 25 -16.82 25 -26 25 C-26 24.67 -26 24.34 -26 24 C-24.62328125 23.97873047 -24.62328125 23.97873047 -23.21875 23.95703125 C-15.71570961 23.66542149 -9.59514357 23.38900671 -4 18 C-0.04314738 12.76674331 -0.29736677 6.33698832 0 0 Z " fill="#232323" transform="translate(224,200)"/>
</svg>
