<?xml version="1.0" encoding="UTF-8"?>
<svg version="1.1" xmlns="http://www.w3.org/2000/svg" width="1000" height="1080">
<path d="M0 0 C330 0 660 0 1000 0 C1000 356.4 1000 712.8 1000 1080 C670 1080 340 1080 0 1080 C0 723.6 0 367.2 0 0 Z " fill="#FEFEFE" transform="translate(0,0)"/>
<path d="M0 0 C0.91813477 0.11263184 1.83626953 0.22526367 2.78222656 0.34130859 C48.87791142 6.13139743 96.06240631 29.75060131 129.515625 61.6328125 C131.60037017 63.61922063 133.72421785 65.4741954 135.9375 67.3125 C146.58559648 76.59092432 155.5559275 87.73593193 164 99 C164.41846191 99.55091309 164.83692383 100.10182617 165.26806641 100.66943359 C194.03509181 138.70745509 213.25091182 188.64599397 213.1328125 236.671875 C213.13424759 237.99919647 213.13424759 237.99919647 213.13571167 239.35333252 C213.13638706 241.21211824 213.13457795 243.07090641 213.13037109 244.9296875 C213.12503957 247.72922245 213.13032488 250.52859511 213.13671875 253.328125 C213.14403084 267.50099678 212.66133788 281.29294463 209.9375 295.25 C209.72198486 296.35553223 209.50646973 297.46106445 209.28442383 298.60009766 C202.73423811 330.63781902 190.43290539 364.15889417 170.80712891 390.5871582 C168.64781094 393.4130117 168.64781094 393.4130117 168.0441637 396.79990959 C169.51148983 400.17731863 172.06947452 402.45591268 174.66056824 404.99441528 C175.55592308 405.88938164 175.55592308 405.88938164 176.46936589 406.80242813 C178.47670188 408.8053297 180.49455278 410.79729529 182.51245117 412.78955078 C183.95179209 414.22149883 185.39044559 415.65413813 186.82846069 417.0874176 C189.93015605 420.17622513 193.0364021 423.2603573 196.14613914 426.34106827 C201.06699896 431.21662765 205.97589831 436.10410929 210.88288879 440.99362183 C223.07798767 453.14161729 235.28804899 465.27454493 247.50268555 477.40289307 C256.98550221 486.81895579 266.4637937 496.2394752 275.92829496 505.67395198 C280.80116026 510.53034755 285.68324518 515.37721715 290.57256448 520.21704412 C293.62095786 523.23868874 296.66090537 526.26872327 299.6986351 529.30108452 C301.10356561 530.70014882 302.51192545 532.09577963 303.92403984 533.4875927 C314.20057653 543.62156548 324.03488082 553.3537857 324.43188477 568.62329102 C324.46262264 581.97555533 322.02863789 592.01425341 312.390625 601.84375 C302.04288279 611.17700768 292.15067943 613.88052587 278.44921875 613.40625 C261.14008647 612.23200316 249.21367025 597.4952633 237.80126953 585.94897461 C236.39791039 584.5368509 234.99406267 583.1252126 233.58976746 581.71401978 C230.5844055 578.69225942 227.58205624 575.66754921 224.58194351 572.64057732 C219.84019417 567.85727969 215.08905675 563.08338157 210.33615112 558.31117249 C196.82859953 544.74617468 183.33139468 531.17093732 169.84863281 517.58129883 C162.38874143 510.06243544 154.92000705 502.55247409 147.44136322 495.05226141 C142.7106013 490.30683253 137.99114626 485.55052046 133.27962041 480.78599632 C130.35597098 477.8347064 127.42199645 474.89385716 124.48490334 471.95595169 C123.12116234 470.58762397 121.76174758 469.21496942 120.40692329 467.83781242 C118.563404 465.96513096 116.70528851 464.10829072 114.84255981 462.25474548 C114.30462677 461.70088399 113.76669373 461.1470225 113.21245968 460.57637733 C111.57192892 458.90608919 111.57192892 458.90608919 109 457 C105.98772936 457.15122581 103.98722119 458.46191814 101.48046875 460.08203125 C100.80032715 460.51338379 100.12018555 460.94473633 99.41943359 461.38916016 C98.68289551 461.8588623 97.94635742 462.32856445 97.1875 462.8125 C78.95142645 474.1356989 60.30119605 483.03497199 40 490 C39.26765137 490.25861816 38.53530273 490.51723633 37.78076172 490.78369141 C-1.46719961 504.58695931 -47.39063317 506.34109938 -88 498 C-89.54252534 497.71761911 -91.08546925 497.43751097 -92.62890625 497.16015625 C-130.24104678 490.02689203 -166.23881038 471.76832209 -196 448 C-196.57637207 447.54077148 -197.15274414 447.08154297 -197.74658203 446.60839844 C-212.46800443 434.74134576 -226.65922195 421.15759696 -238 406 C-238.849992 404.90213588 -239.70027115 403.80449404 -240.55078125 402.70703125 C-259.72875083 377.60599975 -275.06548418 347.63822939 -283 317 C-283.32226562 315.78828125 -283.64453125 314.5765625 -283.9765625 313.328125 C-289.09454464 293.34683292 -291.68525239 273.31677717 -291.52148438 252.69775391 C-291.49999701 249.49955525 -291.52147361 246.30360154 -291.546875 243.10546875 C-291.5924031 207.49451309 -282.63742977 171.9482756 -267 140 C-266.62649414 139.23381348 -266.25298828 138.46762695 -265.86816406 137.67822266 C-255.74332358 117.15455558 -242.89461176 98.27121094 -227.3125 81.49609375 C-225.26342081 79.28433428 -223.27800519 77.03577724 -221.3125 74.75 C-215.64752914 68.27011453 -209.57991831 62.69826327 -202.86328125 57.30859375 C-201.0491531 55.84590652 -199.25231811 54.3612826 -197.48046875 52.84765625 C-142.91829099 6.49913966 -69.75093599 -9.4550317 0 0 Z " fill="#010101" transform="translate(484,195)"/>
<path d="M0 0 C1.80404297 0.64388672 1.80404297 0.64388672 3.64453125 1.30078125 C46.80968309 17.61987486 80.85170857 50.21003448 100.11376953 92.01757812 C105.5928017 104.27370519 109.14784371 116.8988865 112 130 C112.24878906 131.12148438 112.49757813 132.24296875 112.75390625 133.3984375 C120.29804127 175.28685151 108.5421596 222.0235145 85 257 C80.96134918 262.58372181 76.53912313 267.82049095 72 273 C71.51499023 273.56332031 71.02998047 274.12664062 70.53027344 274.70703125 C64.28457321 281.94116642 57.58477042 288.18110881 50 294 C49.11183594 294.71542969 48.22367188 295.43085937 47.30859375 296.16796875 C13.04963482 323.08912563 -32.35916107 335.29968996 -75.51416016 330.12646484 C-120.38855656 324.08944519 -162.66666754 301.90875643 -190.6171875 265.6640625 C-201.38048573 251.24722479 -209.60353646 235.78932787 -216 219 C-216.25120605 218.34821777 -216.50241211 217.69643555 -216.76123047 217.02490234 C-231.46238433 178.22650669 -229.85599103 131.7915804 -212.85693359 94.01538086 C-211.92164527 92.00161755 -210.96649546 89.99896496 -210 88 C-209.67016113 87.31437988 -209.34032227 86.62875977 -209.00048828 85.92236328 C-200.74815016 69.01389092 -190.14293478 54.41827559 -177 41 C-176.24203125 40.19175781 -175.4840625 39.38351562 -174.703125 38.55078125 C-131.19085698 -6.94653549 -58.34982667 -21.14483623 0 0 Z " fill="#FEFEFE" transform="translate(501,284)"/>
<path d="M0 0 C330 0 660 0 1000 0 C1000 26.4 1000 52.8 1000 80 C670 80 340 80 0 80 C0 53.6 0 27.2 0 0 Z " fill="#111224" transform="translate(0,1000)"/>
<path d="M0 0 C0.66 0 1.32 0 2 0 C2 1.98 2 3.96 2 6 C3.32 6 4.64 6 6 6 C6 6.66 6 7.32 6 8 C5.01 8 4.02 8 3 8 C3.33 8.66 3.66 9.32 4 10 C6.33165034 10.33498301 6.33165034 10.33498301 9 10 C9.928125 9.01 9.928125 9.01 10.875 8 C13 6 13 6 16.375 5.625 C19.87353326 5.98691723 22.73324562 6.72516902 26 8 C26.66 7.34 27.32 6.68 28 6 C28.99 6 29.98 6 31 6 C31 6.66 31 7.32 31 8 C31.99 7.34 32.98 6.68 34 6 C34.99 6 35.98 6 37 6 C37 6.66 37 7.32 37 8 C36.19175781 8.37769531 35.38351563 8.75539063 34.55078125 9.14453125 C31.61094603 10.8414959 31.61094603 10.8414959 31.29296875 14.57421875 C31.23339267 15.94446863 31.19902518 17.31600403 31.1875 18.6875 C31.16236328 19.38939453 31.13722656 20.09128906 31.11132812 20.81445312 C31.05255552 22.54236781 31.0233903 24.2712443 31 26 C30.01 26.33 29.02 26.66 28 27 C27.67 26.34 27.34 25.68 27 25 C26.34 25.33 25.68 25.66 25 26 C23.06640414 26.14851844 21.12657903 26.22130833 19.1875 26.25 C18.14980469 26.27578125 17.11210938 26.3015625 16.04296875 26.328125 C12.63208596 25.96032763 10.85617015 24.81439081 8 23 C7.34 23.33 6.68 23.66 6 24 C6 24.66 6 25.32 6 26 C4.125 25.8125 4.125 25.8125 2 25 C-0.80078943 20.25421791 -0.22278261 15.00913065 -0.125 9.6875 C-0.11597656 8.75615234 -0.10695313 7.82480469 -0.09765625 6.86523438 C-0.07418263 4.5765564 -0.04134729 2.28841328 0 0 Z " fill="#242535" transform="translate(86,1028)"/>
<path d="M0 0 C1.32 0 2.64 0 4 0 C4.33 3.63 4.66 7.26 5 11 C5.9075 10.154375 6.815 9.30875 7.75 8.4375 C9.296875 6.99609375 9.296875 6.99609375 11 6 C13.203125 6.34765625 13.203125 6.34765625 15 7 C14.55527344 7.38671875 14.11054688 7.7734375 13.65234375 8.171875 C13.08644531 8.69265625 12.52054688 9.2134375 11.9375 9.75 C11.36902344 10.26046875 10.80054688 10.7709375 10.21484375 11.296875 C8.79229351 12.91128549 8.79229351 12.91128549 9.125 14.90625 C10.17603983 17.42123816 11.51292081 19.50805564 13.0625 21.75 C13.61035156 22.54921875 14.15820312 23.3484375 14.72265625 24.171875 C15.14417969 24.77515625 15.56570312 25.3784375 16 26 C13.67578125 26.2109375 13.67578125 26.2109375 11 26 C9.41796875 24.5390625 9.41796875 24.5390625 8.1875 22.625 C7.55908203 21.68527344 7.55908203 21.68527344 6.91796875 20.7265625 C6 19 6 19 6 17 C5.34 17 4.68 17 4 17 C4 19.97 4 22.94 4 26 C2.68 26 1.36 26 0 26 C-0.495 23.525 -0.495 23.525 -1 21 C-1 21.99 -1 22.98 -1 24 C-4.66788808 26.34744837 -7.71902154 26.60083908 -12 26 C-15.17546049 23.36504343 -16.61527733 21.78286116 -17.48046875 17.7734375 C-17.73910164 13.59337086 -17.3246685 11.49714863 -15 7.9375 C-10.92850586 5.30799336 -8.78247476 5.52959265 -4 6 C-3.34 6.33 -2.68 6.66 -2 7 C-1.34 4.69 -0.68 2.38 0 0 Z " fill="#191A2B" transform="translate(194,1028)"/>
<path d="M0 0 C2.76320636 0.8468671 5.32910032 1.87541066 8 3 C8.33 2.01 8.66 1.02 9 0 C10.32 0 11.64 0 13 0 C13 1.98 13 3.96 13 6 C14.65 6 16.3 6 18 6 C18 6.99 18 7.98 18 9 C16.35 9 14.7 9 13 9 C13.05991406 10.95918968 13.14867138 12.91751529 13.25 14.875 C13.29640625 15.96554687 13.3428125 17.05609375 13.390625 18.1796875 C13.68846128 21.1332065 13.68846128 21.1332065 16.046875 22.3828125 C16.69140625 22.58648438 17.3359375 22.79015625 18 23 C17.67 23.99 17.34 24.98 17 26 C11.35087719 24.52631579 11.35087719 24.52631579 9.8125 22.21875 C8.90326689 19.73584421 8.79752328 17.88420851 8.875 15.25 C8.89304688 14.45078125 8.91109375 13.6515625 8.9296875 12.828125 C8.95289063 12.22484375 8.97609375 11.6215625 9 11 C8.01 11.495 8.01 11.495 7 12 C7.06960937 12.59167969 7.13921875 13.18335938 7.2109375 13.79296875 C7.52334512 18.35263234 7.51206663 20.33970355 4.625 24.0625 C0.4894302 26.93469764 -4.17445506 26.58139096 -9 26 C-9.99 25.67 -10.98 25.34 -12 25 C-11.67 23.68 -11.34 22.36 -11 21 C-10.01 21.33 -9.02 21.66 -8 22 C-4.31617231 22.13156527 -1.50946415 22.16982138 2 21 C1.88734703 18.55636992 1.88734703 18.55636992 1 16 C-1.22125838 14.59964505 -1.22125838 14.59964505 -3.9375 13.8125 C-8.84782609 12.15217391 -8.84782609 12.15217391 -11 10 C-11.46382725 6.44399109 -11.42769679 4.65009912 -9.4375 1.625 C-6.03064606 -0.64623596 -4.04647545 -0.4720888 0 0 Z " fill="#2D2E3D" transform="translate(137,1028)"/>
<path d="M0 0 C3.51469381 0.74780719 4.77487432 1.79695103 6.9375 4.625 C6.9375 5.285 6.9375 5.945 6.9375 6.625 C10.18264077 6.2644288 10.96498582 5.59369671 13.1875 3.0625 C16.13032803 0.45408425 16.56814149 0.28652569 20.25 0.3125 C21.466875 0.415625 22.68375 0.51875 23.9375 0.625 C24.4325 2.11 24.4325 2.11 24.9375 3.625 C24.01517578 3.55539062 24.01517578 3.55539062 23.07421875 3.484375 C18.12008353 3.11505796 18.12008353 3.11505796 13.875 5.25 C12.35148282 9.10957687 12.31294055 12.08442003 13.875 15.9375 C17.13720859 18.60657975 20.83264876 18.45288884 24.9375 18.625 C24.6075 19.285 24.2775 19.945 23.9375 20.625 C15.36607143 20.91071429 15.36607143 20.91071429 11.9375 18.625 C11.9375 19.285 11.9375 19.945 11.9375 20.625 C10.6175 20.955 9.2975 21.285 7.9375 21.625 C7.9375 20.965 7.9375 20.305 7.9375 19.625 C6.9475 19.955 5.9575 20.285 4.9375 20.625 C-2.31429856 21.20053957 -2.31429856 21.20053957 -5.5 18.75 C-7.96717454 15.39464263 -8.46777233 12.94865469 -8.40625 8.734375 C-7.6252908 3.94212539 -4.80234329 0.98007006 0 0 Z " fill="#101123" transform="translate(58.0625,1033.375)"/>
<path d="M0 0 C2.78327482 1.04763715 3.64822106 2.20175953 5.0859375 4.78515625 C5.484375 7.22265625 5.484375 7.22265625 5.4609375 9.78515625 C5.46867187 10.63078125 5.47640625 11.47640625 5.484375 12.34765625 C4.99872859 15.31866959 4.20681246 16.6595472 2.0859375 18.78515625 C-0.91475212 19.91462931 -3.73111708 20.08617035 -6.9140625 19.78515625 C-9.9765625 17.97265625 -9.9765625 17.97265625 -11.9140625 14.78515625 C-12.91978707 9.70666276 -12.68128008 6.04735291 -9.9765625 1.59765625 C-6.24089272 -0.61325035 -4.19982772 -0.50885285 0 0 Z " fill="#F0F0F2" transform="translate(168.9140625,1034.21484375)"/>
<path d="M0 0 C2.97 0.495 2.97 0.495 6 1 C5 4 5 4 4 5 C4.763125 4.938125 5.52625 4.87625 6.3125 4.8125 C9 5 9 5 10.8125 6.0625 C12.67584949 9.10270179 12.36649683 11.51828011 12 15 C10.95703125 17.20703125 10.95703125 17.20703125 9 19 C6.28770497 19.29642569 4.00260268 19.38061189 1.3125 19.25 C0.2596582 19.22292969 0.2596582 19.22292969 -0.81445312 19.1953125 C-2.54355436 19.14826213 -4.27195205 19.07651873 -6 19 C-6 18.34 -6 17.68 -6 17 C-5.34 17 -4.68 17 -4 17 C-4.12375 15.700625 -4.2475 14.40125 -4.375 13.0625 C-4.44460938 12.33160156 -4.51421875 11.60070313 -4.5859375 10.84765625 C-4.79089844 9.93306641 -4.79089844 9.93306641 -5 9 C-5.66 8.67 -6.32 8.34 -7 8 C-5.47005208 6.79557292 -3.94010417 5.59114583 -2.41015625 4.38671875 C-0.72844923 2.94316909 -0.72844923 2.94316909 0 0 Z " fill="#121324" transform="translate(948,1034)"/>
<path d="M0 0 C1.11375 0.556875 1.11375 0.556875 2.25 1.125 C5.28007196 2.44109315 5.28007196 2.44109315 9 0 C9 3.96 9 7.92 9 12 C9.66 12 10.32 12 11 12 C11 12.66 11 13.32 11 14 C9.02 14 7.04 14 5 14 C5 13.34 5 12.68 5 12 C5.66 12 6.32 12 7 12 C7 11.34 7 10.68 7 10 C2.94718288 11.22527029 -0.44360764 12.69880494 -4 15 C-4.33 14.01 -4.66 13.02 -5 12 C-5.33 12.66 -5.66 13.32 -6 14 C-6.66 14 -7.32 14 -8 14 C-8 11.36 -8 8.72 -8 6 C-8.99 6.33 -9.98 6.66 -11 7 C-11.33 9.31 -11.66 11.62 -12 14 C-12.66 14 -13.32 14 -14 14 C-14 11.36 -14 8.72 -14 6 C-15.32 6.33 -16.64 6.66 -18 7 C-18.33 9.31 -18.66 11.62 -19 14 C-19.66 14 -20.32 14 -21 14 C-21 10.7 -21 7.4 -21 4 C-11 4 -11 4 -8.5625 4.5625 C-5.88434817 5.01974544 -4.47275818 5.1084778 -2 4 C-0.71563266 2.0162233 -0.71563266 2.0162233 0 0 Z " fill="#19192B" transform="translate(882,1039)"/>
<path d="M0 0 C2.9375 1 2.9375 1 5 2 C5 3.32 5 4.64 5 6 C4.113125 5.67 3.22625 5.34 2.3125 5 C-0.70923347 4.08777857 -2.88373706 3.81669042 -6 4 C-6.33 5.32 -6.66 6.64 -7 8 C-6.15695313 8.32613281 -5.31390625 8.65226562 -4.4453125 8.98828125 C-3.34960938 9.42527344 -2.25390625 9.86226562 -1.125 10.3125 C-0.03445312 10.74175781 1.05609375 11.17101563 2.1796875 11.61328125 C5 13 5 13 7 16 C7.5 18.375 7.5 18.375 7 21 C4.2767764 24.22487005 2.68827769 25.76704385 -1.51953125 26.34765625 C-5.30910457 26.38649522 -8.38899943 26.20366686 -12 25 C-11.67 23.68 -11.34 22.36 -11 21 C-10.01 21.33 -9.02 21.66 -8 22 C-4.31617231 22.13156527 -1.50946415 22.16982138 2 21 C1.88734703 18.55636992 1.88734703 18.55636992 1 16 C-1.22125838 14.59964505 -1.22125838 14.59964505 -3.9375 13.8125 C-8.84782609 12.15217391 -8.84782609 12.15217391 -11 10 C-11.46382725 6.44399109 -11.42769679 4.65009912 -9.4375 1.625 C-6.09547193 -0.60301871 -3.95060656 -0.41585332 0 0 Z " fill="#EAEBEC" transform="translate(137,1028)"/>
<path d="M0 0 C1.32 0 2.64 0 4 0 C4.33 3.63 4.66 7.26 5 11 C5.9075 10.154375 6.815 9.30875 7.75 8.4375 C9.296875 6.99609375 9.296875 6.99609375 11 6 C13.203125 6.34765625 13.203125 6.34765625 15 7 C14.55527344 7.38671875 14.11054688 7.7734375 13.65234375 8.171875 C13.08644531 8.69265625 12.52054688 9.2134375 11.9375 9.75 C11.36902344 10.26046875 10.80054688 10.7709375 10.21484375 11.296875 C8.79229351 12.91128549 8.79229351 12.91128549 9.125 14.90625 C10.17603983 17.42123816 11.51292081 19.50805564 13.0625 21.75 C13.61035156 22.54921875 14.15820312 23.3484375 14.72265625 24.171875 C15.14417969 24.77515625 15.56570312 25.3784375 16 26 C13.67578125 26.2109375 13.67578125 26.2109375 11 26 C9.41796875 24.5390625 9.41796875 24.5390625 8.1875 22.625 C7.55908203 21.68527344 7.55908203 21.68527344 6.91796875 20.7265625 C6 19 6 19 6 17 C5.34 17 4.68 17 4 17 C4 19.97 4 22.94 4 26 C2.68 26 1.36 26 0 26 C0 17.42 0 8.84 0 0 Z " fill="#E6E6E8" transform="translate(194,1028)"/>
<path d="M0 0 C2.375 1.5625 2.375 1.5625 4 4 C4.44902962 8.1909431 4.44565826 11.46738251 2 15 C-0.84083641 16.42041821 -2.85477278 16.31452272 -6 16 C-8.375 14.5 -8.375 14.5 -10 12 C-10.81753559 7.92900647 -10.65416433 5.00640667 -8.375 1.5 C-5.27859404 -0.45562482 -3.60146865 -0.60024477 0 0 Z " fill="#181929" transform="translate(106,1036)"/>
<path d="M0 0 C3.64840051 0.77625543 4.86657224 1.51860836 6.9375 4.625 C7.1875 8.375 7.1875 8.375 6.9375 11.625 C2.6475 11.625 -1.6425 11.625 -6.0625 11.625 C-5.0725 13.605 -4.0825 15.585 -3.0625 17.625 C0.2375 17.625 3.5375 17.625 6.9375 17.625 C6.9375 18.285 6.9375 18.945 6.9375 19.625 C3.74516515 21.22116743 0.40288503 21.13966114 -3.0625 20.625 C-5.49369623 18.75484906 -6.70319173 17.34361655 -8.0625 14.625 C-8.52364626 10.01353744 -8.76360453 6.92937149 -5.9375 3.125 C-3.0625 0.625 -3.0625 0.625 0 0 Z " fill="#E8E9EC" transform="translate(58.0625,1033.375)"/>
<path d="M0 0 C1.134375 0.020625 2.26875 0.04125 3.4375 0.0625 C3.4375 0.7225 3.4375 1.3825 3.4375 2.0625 C4.7575 2.0625 6.0775 2.0625 7.4375 2.0625 C7.4375 3.0525 7.4375 4.0425 7.4375 5.0625 C8.0975 5.3925 8.7575 5.7225 9.4375 6.0625 C8.7775 6.0625 8.1175 6.0625 7.4375 6.0625 C7.4375 8.0425 7.4375 10.0225 7.4375 12.0625 C8.0975 12.0625 8.7575 12.0625 9.4375 12.0625 C9.4375 12.7225 9.4375 13.3825 9.4375 14.0625 C4.8175 14.0625 0.1975 14.0625 -4.5625 14.0625 C-4.8925 13.0725 -5.2225 12.0825 -5.5625 11.0625 C-3.2525 11.3925 -0.9425 11.7225 1.4375 12.0625 C0.71481765 8.7639861 0.71481765 8.7639861 -2.625 7.375 C-3.594375 6.941875 -4.56375 6.50875 -5.5625 6.0625 C-4.48849278 0.07874549 -4.48849278 0.07874549 0 0 Z " fill="#2B2B3A" transform="translate(790.5625,1038.9375)"/>
<path d="M0 0 C1.47668858 0.0133035 2.95331108 0.03716415 4.4296875 0.0703125 C5.18378906 0.07933594 5.93789063 0.08835937 6.71484375 0.09765625 C8.57826004 0.1212438 10.44151343 0.15711531 12.3046875 0.1953125 C12.6346875 0.8553125 12.9646875 1.5153125 13.3046875 2.1953125 C11.6546875 2.5253125 10.0046875 2.8553125 8.3046875 3.1953125 C8.3046875 4.5153125 8.3046875 5.8353125 8.3046875 7.1953125 C11.2746875 7.6903125 11.2746875 7.6903125 14.3046875 8.1953125 C13.9746875 8.8553125 13.6446875 9.5153125 13.3046875 10.1953125 C9.83527204 9.73708782 6.63073701 9.30399567 3.3046875 8.1953125 C3.3046875 8.8553125 3.3046875 9.5153125 3.3046875 10.1953125 C-2.12388393 10.55721726 -2.12388393 10.55721726 -4.5703125 9.0078125 C-6.07863852 6.57773169 -6.05554872 5.00515498 -5.6953125 2.1953125 C-3.6953125 0.1953125 -3.6953125 0.1953125 0 0 Z " fill="#74747F" transform="translate(743.6953125,1042.8046875)"/>
<path d="M0 0 C0.66 0 1.32 0 2 0 C2 2.31 2 4.62 2 7 C2.99 6.01 3.98 5.02 5 4 C5.99 4.33 6.98 4.66 8 5 C7.443125 5.8353125 7.443125 5.8353125 6.875 6.6875 C5.70484137 9.05716353 5.70484137 9.05716353 6.875 11.75 C7.24625 12.4925 7.6175 13.235 8 14 C7.01 13.67 6.02 13.34 5 13 C4.3125 10.9375 4.3125 10.9375 4 9 C3.34 9 2.68 9 2 9 C2 10.65 2 12.3 2 14 C0.56344146 14.08131463 -0.8744483 14.13933559 -2.3125 14.1875 C-3.51326172 14.23970703 -3.51326172 14.23970703 -4.73828125 14.29296875 C-7 14 -7 14 -8.8125 12.6875 C-10 11 -10 11 -9.6875 7.8125 C-9.460625 6.884375 -9.23375 5.95625 -9 5 C-5.535 4.505 -5.535 4.505 -2 4 C-1.01 5.485 -1.01 5.485 0 7 C0 4.69 0 2.38 0 0 Z " fill="#70717C" transform="translate(824,1039)"/>
<path d="M0 0 C1.8125 1.0625 1.8125 1.0625 3 3 C3.39995291 6.66623504 3.43899865 9.0988975 1.8125 12.4375 C0 14 0 14 -2.5 14.5 C-5 14 -5 14 -6.8125 12.4375 C-8.43899865 9.0988975 -8.39995291 6.66623504 -8 3 C-5.95177941 -0.34183359 -3.7548828 -0.56323242 0 0 Z " fill="#171929" transform="translate(168,1037)"/>
<path d="M0 0 C0.99 0 1.98 0 3 0 C3 0.66 3 1.32 3 2 C3.99 1.34 4.98 0.68 6 0 C6.99 0 7.98 0 9 0 C9 0.66 9 1.32 9 2 C8.19175781 2.37769531 7.38351563 2.75539063 6.55078125 3.14453125 C3.61094603 4.8414959 3.61094603 4.8414959 3.29296875 8.57421875 C3.23339267 9.94446863 3.19902518 11.31600403 3.1875 12.6875 C3.16236328 13.38939453 3.13722656 14.09128906 3.11132812 14.81445312 C3.05255552 16.54236781 3.0233903 18.2712443 3 20 C2.01 20.33 1.02 20.66 0 21 C-0.33 20.34 -0.66 19.68 -1 19 C-1.66 19.33 -2.32 19.66 -3 20 C-3.99 19.34 -4.98 18.68 -6 18 C-5.505 17.319375 -5.01 16.63875 -4.5 15.9375 C-2.65872664 12.33167301 -2.6358934 10.00517255 -3 6 C-3.88064927 3.64630193 -3.88064927 3.64630193 -5 2 C-4.360625 1.855625 -3.72125 1.71125 -3.0625 1.5625 C-1.02454854 1.18992819 -1.02454854 1.18992819 0 0 Z " fill="#1C1C2C" transform="translate(114,1034)"/>
<path d="M0 0 C2.79836832 -0.4305182 4.35526759 -0.37794659 6.8125 1.0625 C8.67584949 4.10270179 8.36649683 6.51828011 8 10 C6.5 12.4375 6.5 12.4375 5 14 C2.0625 13.625 2.0625 13.625 -1 13 C-2.5635348 9.87293041 -2.39958487 6.42017557 -2 3 C-1.34 2.01 -0.68 1.02 0 0 Z " fill="#DFE0E3" transform="translate(952,1039)"/>
<path d="M0 0 C0 1.32 0 2.64 0 4 C-1.3921875 3.9071875 -1.3921875 3.9071875 -2.8125 3.8125 C-5.88986806 3.77726381 -5.88986806 3.77726381 -7.9375 5 C-9.71298137 8.34208258 -8.65852695 11.34816871 -8 15 C-4.94152152 15.54372951 -2.11227195 16 1 16 C1 16.99 1 17.98 1 19 C-2.17878694 20.58939347 -4.4956772 20.41576711 -8 20 C-11.17546049 17.36504343 -12.61527733 15.78286116 -13.48046875 11.7734375 C-13.73910164 7.59337086 -13.3246685 5.49714863 -11 1.9375 C-6.97116741 -0.66445438 -4.71992657 -0.39999378 0 0 Z " fill="#EEEEEF" transform="translate(190,1034)"/>
<path d="M0 0 C0.99 0.33 1.98 0.66 3 1 C2.01 1 1.02 1 0 1 C0 0.67 0 0.34 0 0 Z M-2 1 C-1.01 1.33 -0.02 1.66 1 2 C1 2.66 1 3.32 1 4 C2.65 4.33 4.3 4.66 6 5 C5.35600627 6.95893905 4.70974759 8.91713364 4.0625 10.875 C3.70285156 11.96554687 3.34320312 13.05609375 2.97265625 14.1796875 C2 17 2 17 1 19 C0.34 19 -0.32 19 -1 19 C-1.83534649 16.85494956 -2.66822626 14.70893835 -3.5 12.5625 C-3.9640625 11.36753906 -4.428125 10.17257812 -4.90625 8.94140625 C-6 6 -6 6 -6 5 C-4.35 5 -2.7 5 -1 5 C-1.33 3.68 -1.66 2.36 -2 1 Z " fill="#17182A" transform="translate(731,1034)"/>
<path d="M0 0 C3.97245401 0.70936679 5.67231707 1.79731707 8.5 4.625 C10.03214888 7.68929776 9.72938548 10.2415642 9.5 13.625 C7.84860695 17.1636994 6.78394771 18.43570153 3.5 20.625 C-2.62452002 21.29312946 -2.62452002 21.29312946 -5.875 18.8125 C-8.79277104 14.8847313 -8.98587074 11.40272893 -8.5 6.625 C-6.567379 2.65576046 -4.43802624 0.79250469 0 0 Z M-4.875 4.125 C-7.15416433 7.63140667 -7.31753559 10.55400647 -6.5 14.625 C-5.04002013 17.25216577 -5.04002013 17.25216577 -2.5 18.625 C0.54253508 19.20845476 0.54253508 19.20845476 3.5 18.625 C5.53667615 17.07993534 6.36073078 15.90353844 7.5 13.625 C7.85872645 9.75075435 8.06710729 7.47566094 5.875 4.1875 C1.98736027 1.62984228 -0.9461112 1.64359655 -4.875 4.125 Z " fill="#E5E6E8" transform="translate(102.5,1033.375)"/>
<path d="M0 0 C3 1 3 1 3.96728516 2.93359375 C4.23847168 3.75988281 4.5096582 4.58617187 4.7890625 5.4375 C5.09070312 6.33210938 5.39234375 7.22671875 5.703125 8.1484375 C6.00734375 9.08945313 6.3115625 10.03046875 6.625 11 C7.23991878 12.8549203 7.85699159 14.70912839 8.4765625 16.5625 C8.74549316 17.38878906 9.01442383 18.21507812 9.29150391 19.06640625 C9.8384005 20.97862149 9.8384005 20.97862149 11 22 C13.64 14.74 16.28 7.48 19 0 C19.66 0 20.32 0 21 0 C19.42343648 6.28061889 17.61763459 12.48414698 15.5625 18.625 C15.17191406 19.81351563 14.78132813 21.00203125 14.37890625 22.2265625 C13.92386719 23.14179687 13.46882813 24.05703125 13 25 C10.91381836 25.67333984 10.91381836 25.67333984 9 26 C7.49744208 21.85508918 5.99838155 17.70892222 4.5 13.5625 C4.07074219 12.37849609 3.64148437 11.19449219 3.19921875 9.97460938 C2.79316406 8.84990234 2.38710938 7.72519531 1.96875 6.56640625 C1.59169922 5.52427979 1.21464844 4.48215332 0.82617188 3.40844727 C0 1 0 1 0 0 Z " fill="#E6E7EA" transform="translate(30,1028)"/>
<path d="M0 0 C2.625 0.375 2.625 0.375 5 1 C6.17881287 4.68379022 6.21358801 8.15541573 6 12 C4 14 4 14 1.5 14.25 C-1 14 -1 14 -3 12 C-3.046875 9.6875 -3.046875 9.6875 -2.75 7 C-2.66234375 6.113125 -2.5746875 5.22625 -2.484375 4.3125 C-2 2 -2 2 0 0 Z " fill="#97979F" transform="translate(909,1039)"/>
<path d="M0 0 C2.625 0.375 2.625 0.375 5 1 C6.17881287 4.68379022 6.21358801 8.15541573 6 12 C4 14 4 14 1.5 14.25 C-1 14 -1 14 -3 12 C-3.046875 9.6875 -3.046875 9.6875 -2.75 7 C-2.66234375 6.113125 -2.5746875 5.22625 -2.484375 4.3125 C-2 2 -2 2 0 0 Z " fill="#8F8F98" transform="translate(932,1039)"/>
<path d="M0 0 C0.99 0 1.98 0 3 0 C3 1.98 3 3.96 3 6 C4.65 6 6.3 6 8 6 C8 6.99 8 7.98 8 9 C6.35 9 4.7 9 3 9 C3.05991406 10.95918968 3.14867138 12.91751529 3.25 14.875 C3.29640625 15.96554687 3.3428125 17.05609375 3.390625 18.1796875 C3.68846128 21.1332065 3.68846128 21.1332065 6.046875 22.3828125 C6.69140625 22.58648438 7.3359375 22.79015625 8 23 C7.67 23.99 7.34 24.98 7 26 C4.97954558 25.39816251 2.97888961 24.72693904 1 24 C-0.25248502 21.49502996 -0.11374406 19.79146726 -0.09765625 16.9921875 C-0.09443359 16.00605469 -0.09121094 15.01992187 -0.08789062 14.00390625 C-0.07951172 12.97136719 -0.07113281 11.93882813 -0.0625 10.875 C-0.05798828 9.83472656 -0.05347656 8.79445313 -0.04882812 7.72265625 C-0.03701952 5.14838038 -0.02055075 2.57421854 0 0 Z " fill="#F7F7F8" transform="translate(147,1028)"/>
<path d="M0 0 C6.57692308 0.57692308 6.57692308 0.57692308 8 2 C8.45378151 7.21848739 8.45378151 7.21848739 6.875 9.9375 C5 11 5 11 1.9375 10.875 C-1 10 -1 10 -3 7 C-2.6758631 3.67759676 -2.39223697 2.39223697 0 0 Z " fill="#4D4F5C" transform="translate(213,1026)"/>
<path d="M0 0 C0 0.66 0 1.32 0 2 C-0.804375 2.12375 -1.60875 2.2475 -2.4375 2.375 C-3.7059375 2.684375 -3.7059375 2.684375 -5 3 C-5.33 3.66 -5.66 4.32 -6 5 C-4.02 5.66 -2.04 6.32 0 7 C0.625 9.375 0.625 9.375 1 12 C-1 14 -1 14 -3.4375 14.3125 C-6 14 -6 14 -7.8125 12.9375 C-9.69643714 9.86370782 -9.43180709 7.51614342 -9 4 C-6.40088873 0.24572816 -4.49476261 -0.49941807 0 0 Z " fill="#E4E5E8" transform="translate(904,1039)"/>
<path d="M0 0 C1.11375 0.1546875 1.11375 0.1546875 2.25 0.3125 C2.25 0.9725 2.25 1.6325 2.25 2.3125 C1.445625 2.43625 0.64125 2.56 -0.1875 2.6875 C-1.4559375 2.996875 -1.4559375 2.996875 -2.75 3.3125 C-3.08 3.9725 -3.41 4.6325 -3.75 5.3125 C-1.77 5.9725 0.21 6.6325 2.25 7.3125 C2.875 9.6875 2.875 9.6875 3.25 12.3125 C1.25 14.3125 1.25 14.3125 -1.1875 14.625 C-3.75 14.3125 -3.75 14.3125 -5.5625 13.1875 C-7.33705868 10.38556524 -7.20583783 8.56848452 -6.75 5.3125 C-3.89134463 0.44219825 -3.89134463 0.44219825 0 0 Z " fill="#E6E7EB" transform="translate(968.75,1038.6875)"/>
<path d="M0 0 C1.32278481 5.41139241 1.32278481 5.41139241 -0.0625 7.9375 C-2.91093248 9.49954362 -4.93504903 8.74921024 -8 8 C-9.32278481 2.58860759 -9.32278481 2.58860759 -7.9375 0.0625 C-5.08906752 -1.49954362 -3.06495097 -0.74921024 0 0 Z " fill="#DBDCE1" transform="translate(811,1044)"/>
<path d="M0 0 C0.66 0.66 1.32 1.32 2 2 C1.625 5.125 1.625 5.125 1 8 C-4.41139241 9.32278481 -4.41139241 9.32278481 -6.9375 7.9375 C-8.52666796 5.03960549 -7.87523205 3.09697496 -7 0 C-4.29393021 -1.35303489 -2.8671629 -0.7884698 0 0 Z " fill="#DDDDE2" transform="translate(774,1044)"/>
<path d="M0 0 C1.32841008 5.43440487 1.32841008 5.43440487 -0.125 7.9375 C-2 9 -2 9 -4.5625 8.8125 C-7 8 -7 8 -9 6 C-8.75 2.9375 -8.75 2.9375 -8 0 C-5.13822943 -1.43088528 -3.06624227 -0.59991697 0 0 Z " fill="#DFE0E5" transform="translate(858,1044)"/>
<path d="M0 0 C0.99 0.495 0.99 0.495 2 1 C2 1.66 2 2.32 2 3 C4.0745356 4.2236068 4.0745356 4.2236068 7 4 C7.22174933 5.45635371 7.42698698 6.91522956 7.625 8.375 C7.74101562 9.18710938 7.85703125 9.99921875 7.9765625 10.8359375 C7.98429688 11.55007813 7.99203125 12.26421875 8 13 C7.34 13.66 6.68 14.32 6 15 C1.125 13.125 1.125 13.125 0 12 C-0.07244053 9.98035801 -0.08377188 7.95832876 -0.0625 5.9375 C-0.05347656 4.83277344 -0.04445312 3.72804688 -0.03515625 2.58984375 C-0.02355469 1.73519531 -0.01195312 0.88054687 0 0 Z " fill="#1B1B2C" transform="translate(150,1037)"/>
<path d="M0 0 C10.375 0 10.375 0 15 1 C15 3.97 15 6.94 15 10 C14.34 10 13.68 10 13 10 C13 7.36 13 4.72 13 2 C12.01 2.33 11.02 2.66 10 3 C9.67 5.31 9.34 7.62 9 10 C8.34 10 7.68 10 7 10 C7 7.36 7 4.72 7 2 C5.68 2.33 4.36 2.66 3 3 C2.67 5.31 2.34 7.62 2 10 C1.34 10 0.68 10 0 10 C0 6.7 0 3.4 0 0 Z " fill="#E3E5E7" transform="translate(861,1043)"/>
<path d="M0 0 C0.33 0.99 0.66 1.98 1 3 C0.07767578 2.93039062 0.07767578 2.93039062 -0.86328125 2.859375 C-5.81741647 2.49005796 -5.81741647 2.49005796 -10.0625 4.625 C-11.58601718 8.48457687 -11.62455945 11.45942003 -10.0625 15.3125 C-6.80029141 17.98157975 -3.10485124 17.82788884 1 18 C0.67 18.66 0.34 19.32 0 20 C-7.04477612 20.59701493 -7.04477612 20.59701493 -11 18.125 C-13.80989899 13.73453283 -14.0151866 10.07593299 -13 5 C-9.41387839 -0.60331501 -6.13079617 -0.519559 0 0 Z " fill="#E3E4E8" transform="translate(82,1034)"/>
<path d="M0 0 C0.99 0.103125 1.98 0.20625 3 0.3125 C5 3.3125 5 3.3125 5 7.3125 C1.37 7.3125 -2.26 7.3125 -6 7.3125 C-4.63404255 0.48271277 -4.63404255 0.48271277 0 0 Z " fill="#121324" transform="translate(58,1035.6875)"/>
<path d="M0 0 C0.66 0 1.32 0 2 0 C2 1.98 2 3.96 2 6 C3.32 6 4.64 6 6 6 C6 6.66 6 7.32 6 8 C4.68 8 3.36 8 2 8 C2.08708038 10.10494301 2.19525693 12.20902142 2.3125 14.3125 C2.37050781 15.48425781 2.42851563 16.65601563 2.48828125 17.86328125 C3.03046792 21.18676139 3.50337136 21.93174732 6 24 C6 24.66 6 25.32 6 26 C4.125 25.8125 4.125 25.8125 2 25 C-0.80078943 20.25421791 -0.22278261 15.00913065 -0.125 9.6875 C-0.11597656 8.75615234 -0.10695313 7.82480469 -0.09765625 6.86523438 C-0.07418263 4.5765564 -0.04134729 2.28841328 0 0 Z " fill="#D8D8DC" transform="translate(86,1028)"/>
<path d="M0 0 C2.97 0 5.94 0 9 0 C8.34 1.32 7.68 2.64 7 4 C7 4.66 7 5.32 7 6 C7.66 6.66 8.32 7.32 9 8 C8.44444444 12.55555556 8.44444444 12.55555556 7 14 C4.66055264 13.71269945 2.3260857 13.38063221 0 13 C0 12.34 0 11.68 0 11 C1.98 11 3.96 11 6 11 C6 10.01 6 9.02 6 8 C5.01 7.67 4.02 7.34 3 7 C3.66 5.35 4.32 3.7 5 2 C3.35 2 1.7 2 0 2 C0 1.34 0 0.68 0 0 Z " fill="#DFDFE3" transform="translate(918,1039)"/>
<path d="M0 0 C2.5 0.25 2.5 0.25 4.5 2.25 C4.5 3.24 4.5 4.23 4.5 5.25 C2.19 5.25 -0.12 5.25 -2.5 5.25 C-2.17 5.91 -1.84 6.57 -1.5 7.25 C1.02733235 7.90555119 1.02733235 7.90555119 3.5 8.25 C3.17 8.91 2.84 9.57 2.5 10.25 C-0.47 9.755 -0.47 9.755 -3.5 9.25 C-4.125 5.875 -4.125 5.875 -4.5 2.25 C-2.5 0.25 -2.5 0.25 0 0 Z " fill="#C4C5CA" transform="translate(742.5,1042.75)"/>
<path d="M0 0 C1.2065625 0.0309375 1.2065625 0.0309375 2.4375 0.0625 C2.4375 1.0525 2.4375 2.0425 2.4375 3.0625 C1.1175 3.0625 -0.2025 3.0625 -1.5625 3.0625 C-1.5625 3.7225 -1.5625 4.3825 -1.5625 5.0625 C-0.758125 5.289375 0.04625 5.51625 0.875 5.75 C3.4375 7.0625 3.4375 7.0625 4.375 9.5625 C4.395625 10.3875 4.41625 11.2125 4.4375 12.0625 C2.4375 14.0625 2.4375 14.0625 -0.6875 14.1875 C-2.110625 14.125625 -2.110625 14.125625 -3.5625 14.0625 C-3.8925 13.0725 -4.2225 12.0825 -4.5625 11.0625 C-2.2525 11.3925 0.0575 11.7225 2.4375 12.0625 C1.71481765 8.7639861 1.71481765 8.7639861 -1.625 7.375 C-2.594375 6.941875 -3.56375 6.50875 -4.5625 6.0625 C-3.48963568 0.08511307 -3.48963568 0.08511307 0 0 Z " fill="#DCDDE0" transform="translate(789.5625,1038.9375)"/>
<path d="M0 0 C1.67542976 0.28604898 3.34385343 0.61781233 5 1 C5.125 7.75 5.125 7.75 4 10 C2.68 10 1.36 10 0 10 C-1.49106457 7.01787087 -1.11941467 4.28390342 -1 1 C-0.67 0.67 -0.34 0.34 0 0 Z " fill="#1F202F" transform="translate(953,1041)"/>
<path d="M0 0 C0.66 0 1.32 0 2 0 C2 0.66 2 1.32 2 2 C2.99 1.34 3.98 0.68 5 0 C5.99 0 6.98 0 8 0 C8 0.66 8 1.32 8 2 C7.19175781 2.37769531 6.38351563 2.75539063 5.55078125 3.14453125 C2.61094603 4.8414959 2.61094603 4.8414959 2.29296875 8.57421875 C2.23339267 9.94446863 2.19902518 11.31600403 2.1875 12.6875 C2.16236328 13.38939453 2.13722656 14.09128906 2.11132812 14.81445312 C2.05255552 16.54236781 2.0233903 18.2712443 2 20 C1.34 20 0.68 20 0 20 C0 13.4 0 6.8 0 0 Z " fill="#E1E2E4" transform="translate(115,1034)"/>
<path d="M0 0 C0.99 0.33 1.98 0.66 3 1 C3.73046875 3.06640625 3.73046875 3.06640625 4.1875 5.5625 C4.34605469 6.38878906 4.50460937 7.21507812 4.66796875 8.06640625 C4.77753906 8.70449219 4.88710938 9.34257813 5 10 C5.66 10 6.32 10 7 10 C7.66 7.03 8.32 4.06 9 1 C9.99 1 10.98 1 12 1 C10.35 5.29 8.7 9.58 7 14 C6.34 14 5.68 14 5 14 C4.16465351 11.85494956 3.33177374 9.70893835 2.5 7.5625 C2.0359375 6.36753906 1.571875 5.17257812 1.09375 3.94140625 C0 1 0 1 0 0 Z " fill="#DDDEE2" transform="translate(725,1039)"/>
<path d="M0 0 C0.66 0 1.32 0 2 0 C2 2.31 2 4.62 2 7 C2.99 6.01 3.98 5.02 5 4 C5.99 4.33 6.98 4.66 8 5 C7.443125 5.8353125 7.443125 5.8353125 6.875 6.6875 C5.70484137 9.05716353 5.70484137 9.05716353 6.875 11.75 C7.24625 12.4925 7.6175 13.235 8 14 C7.01 13.67 6.02 13.34 5 13 C4.3125 10.9375 4.3125 10.9375 4 9 C3.34 9 2.68 9 2 9 C2 10.65 2 12.3 2 14 C1.34 14 0.68 14 0 14 C0 9.38 0 4.76 0 0 Z " fill="#E5E6E9" transform="translate(824,1039)"/>
<path d="M0 0 C0.66 0 1.32 0 2 0 C1.54705135 1.75140143 1.08741252 3.50107344 0.625 5.25 C0.36976563 6.22453125 0.11453125 7.1990625 -0.1484375 8.203125 C-0.89598509 10.65837303 -1.77123817 12.75617405 -3 15 C-5.14418558 11.78372163 -5.67582137 9.80909895 -6 6 C-5.34 5.34 -4.68 4.68 -4 4 C-3.34 4 -2.68 4 -2 4 C-1.34 2.68 -0.68 1.36 0 0 Z " fill="#777783" transform="translate(882,1039)"/>
<path d="M0 0 C0.33 0.99 0.66 1.98 1 3 C2.32 2.34 3.64 1.68 5 1 C4.38722388 3.96175123 3.74627478 5.38058783 2 8 C1.60612212 10.32387947 1.26513915 12.65793749 1 15 C0.67 14.34 0.34 13.68 0 13 C-1.32 13.33 -2.64 13.66 -4 14 C-3.79503906 13.32453125 -3.59007812 12.6490625 -3.37890625 11.953125 C-3.10949219 11.06109375 -2.84007812 10.1690625 -2.5625 9.25 C-2.16224609 7.92742187 -2.16224609 7.92742187 -1.75390625 6.578125 C-1.11531506 4.39434165 -0.53224167 2.21164502 0 0 Z " fill="#1F202F" transform="translate(49,1032)"/>
<path d="M0 0 C1.32 0 2.64 0 4 0 C4.06058594 0.61488281 4.12117188 1.22976563 4.18359375 1.86328125 C4.26738281 2.67152344 4.35117188 3.47976563 4.4375 4.3125 C4.51871094 5.11300781 4.59992188 5.91351562 4.68359375 6.73828125 C4.95265693 9.16087179 4.95265693 9.16087179 6 12 C5.67 12.66 5.34 13.32 5 14 C2.9375 14.625 2.9375 14.625 1 15 C0.67 13.68 0.34 12.36 0 11 C-0.99 11.33 -1.98 11.66 -3 12 C-3 11.34 -3 10.68 -3 10 C-1.35 9.34 0.3 8.68 2 8 C2 6.68 2 5.36 2 4 C1.01 4.495 1.01 4.495 0 5 C0 3.35 0 1.7 0 0 Z " fill="#333443" transform="translate(65,1040)"/>
<path d="M0 0 C0.66 0 1.32 0 2 0 C-0.14593555 8.54884894 -2.9494127 16.74050475 -6 25 C-6.99 24.34 -7.98 23.68 -9 23 C-8.76925781 22.42894531 -8.53851563 21.85789062 -8.30078125 21.26953125 C-5.46029731 14.20761664 -2.71898548 7.10947841 0 0 Z " fill="#D8D9DE" transform="translate(49,1028)"/>
<path d="M0 0 C0.99 0.33 1.98 0.66 3 1 C3.6953125 2.77734375 3.6953125 2.77734375 4.125 4.9375 C4.59056513 7.18773149 4.96866759 8.93733519 6 11 C3.69 11.66 1.38 12.32 -1 13 C-0.67 8.71 -0.34 4.42 0 0 Z " fill="#1D1E2F" transform="translate(174,1041)"/>
<path d="M0 0 C1.67542976 0.28604898 3.34385343 0.61781233 5 1 C5.33 2.32 5.66 3.64 6 5 C5.01 5.495 5.01 5.495 4 6 C4 4.68 4 3.36 4 2 C2.68 2 1.36 2 0 2 C0.66 3.65 1.32 5.3 2 7 C1.01 7.495 1.01 7.495 0 8 C0.57344937 10.86724686 0.8614515 11.8614515 3 14 C1.35 13.67 -0.3 13.34 -2 13 C-2.79953138 9.71303767 -3.09658936 8.28976808 -2 5 C-1.835 4.29875 -1.67 3.5975 -1.5 2.875 C-1 1 -1 1 0 0 Z " fill="#E7E7EB" transform="translate(932,1039)"/>
<path d="M0 0 C2.97 0.33 5.94 0.66 9 1 C8.67 2.98 8.34 4.96 8 7 C5.6875 7.25 5.6875 7.25 3 7 C1.1875 5.1875 1.1875 5.1875 0 3 C0 2.01 0 1.02 0 0 Z " fill="#181829" transform="translate(52,1045)"/>
<path d="M0 0 C3.63559661 3.43361902 6.36113346 6.7973607 9 11 C6.8125 11.4375 6.8125 11.4375 4 11 C1.55567293 8.48300375 -1 5.60995554 -1 2 C-1.66 1.67 -2.32 1.34 -3 1 C-2.01 0.67 -1.02 0.34 0 0 Z " fill="#EDEDEF" transform="translate(201,1043)"/>
<path d="M0 0 C0.99 0.33 1.98 0.66 3 1 C4.72795352 1.06802967 6.45835365 1.08495645 8.1875 1.0625 C9.08855469 1.05347656 9.98960937 1.04445313 10.91796875 1.03515625 C11.94857422 1.01775391 11.94857422 1.01775391 13 1 C12.67 2.32 12.34 3.64 12 5 C10.39592672 5.02708567 8.7917215 5.04643483 7.1875 5.0625 C5.84751953 5.07990234 5.84751953 5.07990234 4.48046875 5.09765625 C2 5 2 5 -1 4 C-0.67 2.68 -0.34 1.36 0 0 Z " fill="#E4E5E7" transform="translate(126,1049)"/>
<path d="M0 0 C2.625 0.375 2.625 0.375 5 1 C5.33 2.32 5.66 3.64 6 5 C5.01 5.495 5.01 5.495 4 6 C4 4.68 4 3.36 4 2 C2.68 2 1.36 2 0 2 C0.66 3.65 1.32 5.3 2 7 C1.01 7.495 1.01 7.495 0 8 C0.33 9.65 0.66 11.3 1 13 C-0.32 12.67 -1.64 12.34 -3 12 C-2.88601335 10.37419034 -2.75844341 8.74932843 -2.625 7.125 C-2.55539062 6.22007813 -2.48578125 5.31515625 -2.4140625 4.3828125 C-2 2 -2 2 0 0 Z " fill="#E7E7EB" transform="translate(909,1039)"/>
<path d="M0 0 C0 3.96 0 7.92 0 12 C0.66 12 1.32 12 2 12 C2 12.66 2 13.32 2 14 C0.02 14 -1.96 14 -4 14 C-4 13.34 -4 12.68 -4 12 C-3.34 12 -2.68 12 -2 12 C-2.12375 10.700625 -2.2475 9.40125 -2.375 8.0625 C-2.44460938 7.33160156 -2.51421875 6.60070313 -2.5859375 5.84765625 C-2.72257813 5.23792969 -2.85921875 4.62820313 -3 4 C-3.66 3.67 -4.32 3.34 -5 3 C-2.25 0 -2.25 0 0 0 Z " fill="#E5E6E9" transform="translate(946,1039)"/>
<path d="M0 0 C0 3.96 0 7.92 0 12 C0.66 12 1.32 12 2 12 C2 12.66 2 13.32 2 14 C0.02 14 -1.96 14 -4 14 C-4 13.34 -4 12.68 -4 12 C-3.34 12 -2.68 12 -2 12 C-2.12375 10.700625 -2.2475 9.40125 -2.375 8.0625 C-2.44460938 7.33160156 -2.51421875 6.60070313 -2.5859375 5.84765625 C-2.72257813 5.23792969 -2.85921875 4.62820313 -3 4 C-3.66 3.67 -4.32 3.34 -5 3 C-2.25 0 -2.25 0 0 0 Z " fill="#E5E6E8" transform="translate(891,1039)"/>
<path d="M0 0 C-1.98 2.31 -3.96 4.62 -6 7 C-9 6 -9 6 -10.25 4.0625 C-10.4975 3.381875 -10.745 2.70125 -11 2 C-10 0 -10 0 -8.3125 -0.6875 C-5.37519398 -1.08443325 -2.88840266 -0.59080963 0 0 Z " fill="#181829" transform="translate(74,1034)"/>
<path d="M0 0 C2.5 1.8125 2.5 1.8125 5 4 C5 7.20395416 4.25664978 9.09399739 3 12 C1 10.9375 1 10.9375 -1 9 C-1.52238806 3.04477612 -1.52238806 3.04477612 0 0 Z " fill="#19192A" transform="translate(938,1038)"/>
<path d="M0 0 C0.66 0.33 1.32 0.66 2 1 C1.90460937 1.68707031 1.80921875 2.37414063 1.7109375 3.08203125 C1.60007812 3.98308594 1.48921875 4.88414063 1.375 5.8125 C1.25898437 6.70582031 1.14296875 7.59914063 1.0234375 8.51953125 C0.76499257 11.25690391 0.76499257 11.25690391 3 14 C0.83125748 13.49396008 -0.99967627 13.00016187 -3 12 C-2.88648483 10.18674449 -2.75887039 8.37436643 -2.625 6.5625 C-2.55539062 5.55316406 -2.48578125 4.54382812 -2.4140625 3.50390625 C-2.27742187 2.67761719 -2.14078125 1.85132813 -2 1 C-1.34 0.67 -0.68 0.34 0 0 Z " fill="#1E1E2D" transform="translate(962,1039)"/>
<path d="M0 0 C2.72869407 0.03287583 5.2966618 0.56397771 8 1 C6 3 6 3 3.375 3.125 C2.59125 3.08375 1.8075 3.0425 1 3 C2.1490712 4.2981424 2.1490712 4.2981424 5 5 C5.33 5.99 5.66 6.98 6 8 C3.69 7.34 1.38 6.68 -1 6 C-1.625 4.125 -1.625 4.125 -2 2 C-1.34 1.34 -0.68 0.68 0 0 Z " fill="#363644" transform="translate(131,1031)"/>
<path d="M0 0 C0.66 0 1.32 0 2 0 C2.27599507 1.76696843 2.51996915 3.53896215 2.75 5.3125 C2.88921875 6.29863281 3.0284375 7.28476563 3.171875 8.30078125 C3 11 3 11 1.203125 12.91796875 C-1 14 -1 14 -4 13 C-3.50757813 12.60039063 -3.01515625 12.20078125 -2.5078125 11.7890625 C-0.56985978 9.48962637 -0.71132064 8.33085661 -0.875 5.375 C-0.94573847 3.91778749 -0.99418758 2.45891687 -1 1 C-0.67 0.67 -0.34 0.34 0 0 Z " fill="#18192A" transform="translate(144,1039)"/>
<path d="M0 0 C1.45792884 -0.05399736 2.91642712 -0.09279177 4.375 -0.125 C5.18710938 -0.14820313 5.99921875 -0.17140625 6.8359375 -0.1953125 C9 0 9 0 11 2 C10.625 4.125 10.625 4.125 10 6 C5.25 5.25 5.25 5.25 3 3 C2.01 2.67 1.02 2.34 0 2 C0 1.34 0 0.68 0 0 Z " fill="#0F1121" transform="translate(131,1033)"/>
<path d="M0 0 C0.33 0 0.66 0 1 0 C1.22174933 1.45635371 1.42698698 2.91522956 1.625 4.375 C1.74101562 5.18710938 1.85703125 5.99921875 1.9765625 6.8359375 C1.98429688 7.55007813 1.99203125 8.26421875 2 9 C1.34 9.66 0.68 10.32 0 11 C-1.32 10.34 -2.64 9.68 -4 9 C-3.125 4.25 -3.125 4.25 -2 2 C-1.34 2 -0.68 2 0 2 C0 1.34 0 0.68 0 0 Z " fill="#2A2B3A" transform="translate(156,1041)"/>
<path d="M0 0 C1.65 0.33 3.3 0.66 5 1 C4.67 2.65 4.34 4.3 4 6 C2.35 5.67 0.7 5.34 -1 5 C-0.67 3.35 -0.34 1.7 0 0 Z " fill="#1E1F2E" transform="translate(852,1045)"/>
<path d="M0 0 C1.65 0.33 3.3 0.66 5 1 C4.67 2.65 4.34 4.3 4 6 C2.35 5.67 0.7 5.34 -1 5 C-0.67 3.35 -0.34 1.7 0 0 Z " fill="#201F2E" transform="translate(805,1045)"/>
<path d="M0 0 C1.65 0.33 3.3 0.66 5 1 C4.67 2.65 4.34 4.3 4 6 C2.35 5.67 0.7 5.34 -1 5 C-0.67 3.35 -0.34 1.7 0 0 Z " fill="#1F1F2E" transform="translate(769,1045)"/>
<path d="M0 0 C0.94875 0.04125 1.8975 0.0825 2.875 0.125 C3.205 0.785 3.535 1.445 3.875 2.125 C2.225 2.125 0.575 2.125 -1.125 2.125 C-1.455 3.115 -1.785 4.105 -2.125 5.125 C-2.455 5.785 -2.785 6.445 -3.125 7.125 C-4.115 7.125 -5.105 7.125 -6.125 7.125 C-5.03177966 0.20127119 -5.03177966 0.20127119 0 0 Z " fill="#1F1F2E" transform="translate(58.125,1035.875)"/>
<path d="M0 0 C2.55138062 0.87703709 3.75730827 1.65329753 5.3125 3.875 C6 6 6 6 5 10 C1.04 10 -2.92 10 -7 10 C-7 9.67 -7 9.34 -7 9 C-3.37 9 0.26 9 4 9 C2.98839152 4.60685207 2.98839152 4.60685207 -0.125 1.625 C-0.74375 1.41875 -1.3625 1.2125 -2 1 C-1.34 0.67 -0.68 0.34 0 0 Z " fill="#C7C8CD" transform="translate(59,1034)"/>
<path d="M0 0 C1.32 0.33 2.64 0.66 4 1 C4.33 2.65 4.66 4.3 5 6 C2.69 6.33 0.38 6.66 -2 7 C-1.34 4.69 -0.68 2.38 0 0 Z " fill="#1B1C2B" transform="translate(734,1046)"/>
<path d="M0 0 C2.9375 0.75 2.9375 0.75 6 2 C6.875 4.125 6.875 4.125 7 6 C4.69 5.67 2.38 5.34 0 5 C0 3.35 0 1.7 0 0 Z " fill="#262737" transform="translate(785,1045)"/>
<path d="M0 0 C0.66 0 1.32 0 2 0 C2 0.99 2 1.98 2 3 C2.66 3.33 3.32 3.66 4 4 C3.34 4 2.68 4 2 4 C2 5.98 2 7.96 2 10 C2.66 10 3.32 10 4 10 C4 10.66 4 11.32 4 12 C2.0625 11.5 2.0625 11.5 0 10 C-0.97077399 6.58055728 -1.61815467 3.23630934 0 0 Z " fill="#E1E1E5" transform="translate(760,1041)"/>
<path d="M0 0 C1.32 0.33 2.64 0.66 4 1 C4 2.65 4 4.3 4 6 C4.66 6.33 5.32 6.66 6 7 C5.34 7.66 4.68 8.32 4 9 C1.875 8.625 1.875 8.625 0 8 C0.99 8 1.98 8 3 8 C2.67 7.01 2.34 6.02 2 5 C1.01 5.495 1.01 5.495 0 6 C0 4.02 0 2.04 0 0 Z " fill="#91929E" transform="translate(214,1028)"/>
<path d="M0 0 C0.33 0.66 0.66 1.32 1 2 C1.99 2 2.98 2 4 2 C3.835 3.093125 3.67 4.18625 3.5 5.3125 C2.93281816 8.87525873 2.93281816 8.87525873 3 12 C1.68 11.34 0.36 10.68 -1 10 C-0.814375 9.2575 -0.62875 8.515 -0.4375 7.75 C-0.00415005 5.02608603 -0.2593443 3.59229496 -1 1 C-0.67 0.67 -0.34 0.34 0 0 Z " fill="#212330" transform="translate(904,1042)"/>
<path d="M0 0 C2.97 0.495 2.97 0.495 6 1 C6 2.32 6 3.64 6 5 C3.03 4.505 3.03 4.505 0 4 C0 2.68 0 1.36 0 0 Z " fill="#1F2030" transform="translate(788,1041)"/>
<path d="M0 0 C1.8871875 0.061875 1.8871875 0.061875 3.8125 0.125 C4.1425 1.115 4.4725 2.105 4.8125 3.125 C3.89017578 3.09019531 3.89017578 3.09019531 2.94921875 3.0546875 C2.14097656 3.03664063 1.33273438 3.01859375 0.5 3 C-0.70076172 2.96519531 -0.70076172 2.96519531 -1.92578125 2.9296875 C-4.47138576 2.96682678 -4.47138576 2.96682678 -7.1875 5.125 C-7.1875 4.135 -7.1875 3.145 -7.1875 2.125 C-4.09861478 0.06574319 -3.47814073 -0.1140374 0 0 Z " fill="#CACBD1" transform="translate(78.1875,1033.875)"/>
<path d="M0 0 C1.65 0.33 3.3 0.66 5 1 C4.67 2.32 4.34 3.64 4 5 C2.35 4.67 0.7 4.34 -1 4 C-0.67 2.68 -0.34 1.36 0 0 Z " fill="#272836" transform="translate(898,1046)"/>
<path d="M0 0 C1.65 0.33 3.3 0.66 5 1 C4.67 2.32 4.34 3.64 4 5 C2.35 4.67 0.7 4.34 -1 4 C-0.67 2.68 -0.34 1.36 0 0 Z " fill="#272736" transform="translate(965,1046)"/>
<path d="M0 0 C0.66 0 1.32 0 2 0 C2 0.66 2 1.32 2 2 C2.66 2.33 3.32 2.66 4 3 C3.34 3 2.68 3 2 3 C2 4.98 2 6.96 2 9 C2.66 9 3.32 9 4 9 C4 9.66 4 10.32 4 11 C2.0625 10.4375 2.0625 10.4375 0 9 C-1.42682927 2.85365854 -1.42682927 2.85365854 0 0 Z " fill="#EBEDEF" transform="translate(796,1042)"/>
<path d="M0 0 C1.65 0 3.3 0 5 0 C5 0.66 5 1.32 5 2 C4.01 2.495 4.01 2.495 3 3 C2.59270772 5.32156597 2.25561323 7.6568787 2 10 C1.34 10 0.68 10 0 10 C0 6.7 0 3.4 0 0 Z " fill="#E5E7EB" transform="translate(778,1043)"/>
<path d="M0 0 C3.375 0.375 3.375 0.375 5.375 2.375 C2.16048731 3.98225635 -1.06112536 3.43248185 -4.625 3.375 C-4.625 4.035 -4.625 4.695 -4.625 5.375 C-5.615 5.045 -6.605 4.715 -7.625 4.375 C-5.13890492 1.19279829 -4.10803391 0.42496902 0 0 Z " fill="#D8D9DE" transform="translate(102.625,1033.625)"/>
<path d="M0 0 C1.20628008 2.33214148 2.1654738 4.49642139 3 7 C4.65 7 6.3 7 8 7 C8 7.99 8 8.98 8 10 C5.29686424 10.21917317 3.56041618 10.32851983 1.1875 8.9375 C-0.60842137 6.00731249 -0.18977574 3.3527047 0 0 Z " fill="#D9D9DE" transform="translate(895,1043)"/>
<path d="M0 0 C0.66 0 1.32 0 2 0 C2.12375 0.639375 2.2475 1.27875 2.375 1.9375 C2.684375 2.9584375 2.684375 2.9584375 3 4 C3.66 4.33 4.32 4.66 5 5 C3.35 5.66 1.7 6.32 0 7 C-0.66 5.35 -1.32 3.7 -2 2 C-1.34 1.34 -0.68 0.68 0 0 Z " fill="#1E1D2D" transform="translate(49,1048)"/>
<path d="M0 0 C0.66 0 1.32 0 2 0 C1.75 1.875 1.75 1.875 1 4 C-1 5.125 -1 5.125 -3 6 C-3.33 6.66 -3.66 7.32 -4 8 C-4.33 6.35 -4.66 4.7 -5 3 C-3.35 2.34 -1.7 1.68 0 1 C0 0.67 0 0.34 0 0 Z " fill="#282838" transform="translate(756,1043)"/>
<path d="M0 0 C3.875 1.75 3.875 1.75 5 4 C5.1875 7.5 5.1875 7.5 5 11 C4.34 11.66 3.68 12.32 3 13 C2.92652344 12.09507813 2.92652344 12.09507813 2.8515625 11.171875 C2.77679688 10.37265625 2.70203125 9.5734375 2.625 8.75 C2.55539063 7.96109375 2.48578125 7.1721875 2.4140625 6.359375 C1.98492887 3.914123 1.21399362 2.15163097 0 0 Z " fill="#E7E7E9" transform="translate(107,1036)"/>
<path d="M0 0 C1.99954746 -0.04254356 4.00041636 -0.04080783 6 0 C7 1 7 1 7.0625 4.0625 C7.041875 5.031875 7.02125 6.00125 7 7 C6.01 7 5.02 7 4 7 C3.896875 6.21625 3.79375 5.4325 3.6875 4.625 C3.22404978 1.66954819 3.22404978 1.66954819 0 0 Z " fill="#424450" transform="translate(214,1027)"/>
<path d="M0 0 C0.66 0.99 1.32 1.98 2 3 C-1.0684847 5.97550031 -2.46236331 6.96474513 -6.8125 7.25 C-7.864375 7.1675 -8.91625 7.085 -10 7 C-7.23776722 4.23776722 -4.79293383 4.42143709 -1 4 C-0.67 2.68 -0.34 1.36 0 0 Z " fill="#D3D4D9" transform="translate(109,1047)"/>
<path d="M0 0 C0.33 0 0.66 0 1 0 C1.36108597 6.25882353 1.36108597 6.25882353 -0.1875 9.4375 C-2 11 -2 11 -4.6875 11.25 C-5.450625 11.1675 -6.21375 11.085 -7 11 C-6.360625 10.566875 -5.72125 10.13375 -5.0625 9.6875 C-2.73253997 8.08760823 -2.73253997 8.08760823 -2 5 C-1.34 5 -0.68 5 0 5 C0 3.35 0 1.7 0 0 Z " fill="#2F303E" transform="translate(170,1040)"/>
<path d="M0 0 C0.66 0.33 1.32 0.66 2 1 C1.01 3.97 0.02 6.94 -1 10 C-1.66 10 -2.32 10 -3 10 C-3.33 8.35 -3.66 6.7 -4 5 C-3.01 4.67 -2.02 4.34 -1 4 C-0.26676204 1.98491642 -0.26676204 1.98491642 0 0 Z " fill="#252533" transform="translate(733,1039)"/>
<path d="M0 0 C0.99 0.99 1.98 1.98 3 3 C2.67 3.99 2.34 4.98 2 6 C1.67 5.34 1.34 4.68 1 4 C-0.65 4.33 -2.3 4.66 -4 5 C-3.6875 3.0625 -3.6875 3.0625 -3 1 C-2.01 0.67 -1.02 0.34 0 0 Z " fill="#1D1E2E" transform="translate(725,1042)"/>
<path d="M0 0 C0.598125 0.350625 1.19625 0.70125 1.8125 1.0625 C1.1525 2.7125 0.4925 4.3625 -0.1875 6.0625 C-1.1775 5.7325 -2.1675 5.4025 -3.1875 5.0625 C-4.375 2.5 -4.375 2.5 -5.1875 0.0625 C-2.1875 -0.9375 -2.1875 -0.9375 0 0 Z " fill="#181929" transform="translate(177.1875,1035.9375)"/>
<path d="M0 0 C1.65 0 3.3 0 5 0 C4.67 1.32 4.34 2.64 4 4 C2.02 4 0.04 4 -2 4 C-1.34 2.68 -0.68 1.36 0 0 Z " fill="#30303E" transform="translate(966,1041)"/>
<path d="M0 0 C2.97 0 5.94 0 9 0 C8.34 1.32 7.68 2.64 7 4 C4.69 3.34 2.38 2.68 0 2 C0 1.34 0 0.68 0 0 Z " fill="#C3C3C8" transform="translate(918,1039)"/>
<path d="M0 0 C0.33 0.99 0.66 1.98 1 3 C2.32 2.34 3.64 1.68 5 1 C4.43628586 4.26954202 3.50037734 5.82575883 1 8 C1 7.34 1 6.68 1 6 C0.34 6 -0.32 6 -1 6 C-0.67 4.02 -0.34 2.04 0 0 Z " fill="#2E2F3D" transform="translate(49,1032)"/>
<path d="M0 0 C0.66 0.33 1.32 0.66 2 1 C1.125 5.875 1.125 5.875 0 7 C-1.66617115 7.04063832 -3.33388095 7.042721 -5 7 C-4 5 -4 5 -1 4 C-0.26676204 1.98491642 -0.26676204 1.98491642 0 0 Z " fill="#D6D7DB" transform="translate(970,1046)"/>
<path d="M0 0 C0 0.99 0 1.98 0 3 C-2.31 3.33 -4.62 3.66 -7 4 C-7 3.34 -7 2.68 -7 2 C-4.35261084 0.5393715 -3.10551666 0 0 0 Z " fill="#E6E6E9" transform="translate(191,1050)"/>
<path d="M0 0 C0.66 0 1.32 0 2 0 C3.32 2.31 4.64 4.62 6 7 C3.5625 6.3125 3.5625 6.3125 1 5 C0.1875 2.375 0.1875 2.375 0 0 Z " fill="#1F1F2D" transform="translate(198,1045)"/>
<path d="M0 0 C1.98 0.495 1.98 0.495 4 1 C3.67 2.32 3.34 3.64 3 5 C1.68 4.67 0.36 4.34 -1 4 C-0.67 2.68 -0.34 1.36 0 0 Z " fill="#282837" transform="translate(921,1046)"/>
<path d="M0 0 C1.32 0.66 2.64 1.32 4 2 C3.67 2.99 3.34 3.98 3 5 C1.68 4.67 0.36 4.34 -1 4 C-0.67 2.68 -0.34 1.36 0 0 Z " fill="#1D1C2B" transform="translate(909,1046)"/>
<path d="M0 0 C1.32 0.66 2.64 1.32 4 2 C3.67 2.99 3.34 3.98 3 5 C1.68 4.67 0.36 4.34 -1 4 C-0.67 2.68 -0.34 1.36 0 0 Z " fill="#1D1C2C" transform="translate(932,1046)"/>
<path d="M0 0 C2.95183101 2.95183101 3.08663988 5.95511947 4 10 C2.68 9.34 1.36 8.68 0 8 C0 5.36 0 2.72 0 0 Z " fill="#2D2D3C" transform="translate(34,1041)"/>
<path d="M0 0 C2.64 0.33 5.28 0.66 8 1 C6 3 6 3 2.375 3.125 C1.26125 3.08375 0.1475 3.0425 -1 3 C-0.67 2.01 -0.34 1.02 0 0 Z " fill="#252635" transform="translate(131,1031)"/>
<path d="M0 0 C0.99 0.33 1.98 0.66 3 1 C3 2.65 3 4.3 3 6 C2.01 6.33 1.02 6.66 0 7 C0 4.69 0 2.38 0 0 Z " fill="#393846" transform="translate(174,1041)"/>
</svg>
